<svg xmlns="http://www.w3.org/2000/svg" fill="none" viewBox="0 0 112 112"><g filter="url(#a)"><path fill="#fff" d="M56 85c-16.542 0-30-13.458-30-30s13.458-30 30-30 30 13.458 30 30-13.458 30-30 30zm0-59.174c-16.087 0-29.174 13.087-29.174 29.174 0 16.086 13.087 29.173 29.173 29.173S85.173 71.086 85.173 55c0-16.087-13.087-29.174-29.173-29.174z"/></g><path fill="#fff" d="M56 112C25.12 112 0 86.88 0 56S25.12 0 56 0c30.878 0 56 25.122 56 56 0 30.88-25.12 56-56 56zM56 .65C25.48.65.65 25.48.65 56c0 30.52 24.83 55.349 55.35 55.349 30.52 0 55.349-24.83 55.349-55.35 0-30.52-24.83-55.348-55.35-55.348z"/><path fill="#fff" d="M72.66 49.629l6.578-9.9-11.553 2.794L64.816 6 49.63 39.34l-9.9-6.579 2.794 11.554L6 47.184 39.34 62.37l-6.579 9.9 11.554-2.795L47.184 106s7.062-15.076 6.872-15.086L62.37 72.66l9.9 6.578-2.795-11.553L106 64.816 72.66 49.63zM56 55.999l6.667 9.522-13.66 30.135L56 56l-9.522 6.667-30.135-13.66L56 56l-6.668-9.522 13.66-30.135L56 56l9.521-6.667 30.135 13.66L56 56z"/><path fill="#fff" fill-rule="evenodd" d="M5 56c0 28.123 22.879 51.001 51 51.001s51-22.88 51-51C107 27.88 84.123 5 56 5 27.88 5 5 27.879 5 56zM54.66 5.673c-2.44.064-4.838.303-7.18.703l-.232 5.686-2.393-5.163a49.877 49.877 0 00-6.842 2.077l.878 5.614L35.543 10a50.295 50.295 0 00-6.397 3.43l1.954 5.33-4.171-3.842a50.705 50.705 0 00-5.556 4.57l2.953 4.838-4.84-2.953a50.727 50.727 0 00-4.575 5.566l3.842 4.171-5.329-1.953a50.335 50.335 0 00-3.405 6.345l4.588 3.346-5.615-.877a49.92 49.92 0 00-2.095 6.89l5.162 2.392-5.684.235a50.42 50.42 0 00-.702 7.175L11.206 56l-5.533 1.34c.064 2.439.302 4.834.702 7.175l5.684.235-5.161 2.392a49.892 49.892 0 002.095 6.89l5.614-.88-4.587 3.35a50.275 50.275 0 003.405 6.344l5.328-1.954-3.841 4.171a50.68 50.68 0 004.575 5.565l4.839-2.953-2.952 4.84a50.774 50.774 0 005.552 4.566l4.182-3.85-1.958 5.342a50.206 50.206 0 006.35 3.408l3.347-4.586-.876 5.614a49.804 49.804 0 006.887 2.094l2.388-5.157.236 5.678c2.343.401 4.74.64 7.18.704L56 100.795l1.34 5.533a50.318 50.318 0 007.177-.704l.238-5.743c-2.832.564-5.76.86-8.755.86-24.67 0-44.74-20.07-44.74-44.74 0-24.669 20.07-44.74 44.74-44.74S100.739 31.33 100.739 56c0 21.672-15.489 39.795-35.978 43.879l2.417 5.214a49.913 49.913 0 006.853-2.087l-.877-5.612 3.347 4.585a50.228 50.228 0 006.353-3.41l-1.953-5.329 4.171 3.84a50.704 50.704 0 005.537-4.55l-2.966-4.86 4.862 2.965a50.703 50.703 0 004.584-5.575l-3.84-4.169 5.326 1.953a50.3 50.3 0 003.406-6.345l-4.587-3.348 5.613.878a49.807 49.807 0 002.082-6.833l-5.16-2.39 5.685-.236c.407-2.359.649-4.774.713-7.232L100.795 56l5.532-1.34a50.282 50.282 0 00-.703-7.173l-5.683-.234 5.161-2.393a49.84 49.84 0 00-2.095-6.891l-5.613.88 4.586-3.349a50.213 50.213 0 00-3.404-6.343l-5.328 1.953 3.84-4.172a50.716 50.716 0 00-4.565-5.554l-4.84 2.951 2.953-4.84a50.75 50.75 0 00-5.564-4.577l-4.17 3.842 1.952-5.33a50.245 50.245 0 00-6.37-3.417L73.136 14.6l.877-5.615a49.968 49.968 0 00-6.867-2.087l-2.394 5.163-.236-5.686a50.185 50.185 0 00-7.177-.703L56 11.207l-1.342-5.534zM11.915 56c0-24.307 19.776-44.084 44.085-44.083 24.307 0 44.083 19.775 44.083 44.083 0 24.31-19.777 44.085-44.085 44.085-24.307 0-44.083-19.777-44.083-44.085z" clip-rule="evenodd"/><defs><filter id="a" width="100" height="100" x="6" y="11" color-interpolation-filters="sRGB" filterUnits="userSpaceOnUse"><feFlood flood-opacity="0" result="BackgroundImageFix"/><feColorMatrix in="SourceAlpha" result="hardAlpha" values="0 0 0 0 0 0 0 0 0 0 0 0 0 0 0 0 0 0 127 0"/><feOffset dy="6"/><feGaussianBlur stdDeviation="10"/><feComposite in2="hardAlpha" operator="out"/><feColorMatrix values="0 0 0 0 0.0431373 0 0 0 0 0.14902 0 0 0 0 0.211765 0 0 0 0.6 0"/><feBlend in2="BackgroundImageFix" result="effect1_dropShadow_718_1311"/><feBlend in="SourceGraphic" in2="effect1_dropShadow_718_1311" result="shape"/></filter></defs></svg>